<svg
  width="28"
  height="28"
  viewBox="0 0 24 24"
  fill="none"
  stroke="#0F213A"
  stroke-width="1.9"
  stroke-linecap="round"
  stroke-linejoin="round"
>
  <!-- HEART OUTLINE -->
  <path
    d="
      M12 20.4
      c-3.7-3 -6.3-5.4 -8-7.6 
      C2 10.7 1.7 8.1 3.4 6.3
      c1.7-1.7 4.5-1.9 6.3 -0.4
      c0.8 0.7 1.6 1.6 2.1 2.4
      c0.5 -0.8 1.3 -1.7 2.1 -2.4
      c1.8 -1.5 4.6 -1.3 6.3 0.4
      c1.7 1.8 1.4 4.4 0.4 6.5
      c-1.7 2.2 -4.3 4.6 -8.1 7.6
    "
  />

  <!-- ECG PULSE (centered & not touching borders) -->
  <path
    d="
      M5.2 12
      h3.0
      l1.0 -2.3
      l2.0 5.3
      l2.0 -5.5
      l1.7 3.8
      h3.8
    "
  />
</svg>
